<?xml version="1.0" encoding="UTF-8"?>
<!DOCTYPE svg PUBLIC "-//W3C//DTD SVG 1.1//EN" "http://www.w3.org/Graphics/SVG/1.1/DTD/svg11.dtd">
<svg xmlns="http://www.w3.org/2000/svg" version="1.1" width="500px" height="500px" style="shape-rendering:geometricPrecision; text-rendering:geometricPrecision; image-rendering:optimizeQuality; fill-rule:evenodd; clip-rule:evenodd" xmlns:xlink="http://www.w3.org/1999/xlink">
<g><path style="opacity:0.988" fill="#edb060" d="M 414.5,37.5 C 413.833,36.5 413.167,35.5 412.5,34.5C 411.544,31.5614 409.877,29.228 407.5,27.5C 406.909,26.8485 406.243,26.1818 405.5,25.5C 400.198,24.3372 394.864,24.1705 389.5,25C 384.523,27.6389 379.189,29.4722 373.5,30.5C 383.752,23.5099 395.086,21.3432 407.5,24C 412.087,27.3401 414.42,31.8401 414.5,37.5 Z"/></g>
<g><path style="opacity:1" fill="#eeba68" d="M 106.5,23.5 C 108.199,23.3398 109.866,23.5065 111.5,24C 113.97,25.0214 116.304,26.1881 118.5,27.5C 114.812,26.8283 111.145,25.9949 107.5,25C 106.944,24.6174 106.611,24.1174 106.5,23.5 Z"/></g>
<g><path style="opacity:0.82" fill="#edbb7d" d="M 93.5,23.5 C 92.8333,24.5 92.1667,25.5 91.5,26.5C 89.8333,27.8333 88.1667,29.1667 86.5,30.5C 87.8333,27.1667 90.1667,24.8333 93.5,23.5 Z"/></g>
<g><path style="opacity:1" fill="#fea420" d="M 106.5,23.5 C 106.611,24.1174 106.944,24.6174 107.5,25C 111.145,25.9949 114.812,26.8283 118.5,27.5C 118.833,27.5 119.167,27.5 119.5,27.5C 123.345,31.4913 128.012,34.3246 133.5,36C 134.898,38.3982 136.898,40.0649 139.5,41C 138.289,41.8928 138.289,42.7261 139.5,43.5C 140.293,43.0688 141.127,42.7355 142,42.5C 143.694,44.4292 145.861,45.4292 148.5,45.5C 149.038,47.1172 149.371,48.7839 149.5,50.5C 153.016,51.7843 156.35,53.451 159.5,55.5C 161.817,56.8198 163.817,58.4864 165.5,60.5C 168.231,64.2343 171.564,67.2343 175.5,69.5C 176.624,70.8086 178.124,71.4753 180,71.5C 184.42,71.4355 188.254,70.1022 191.5,67.5C 193.403,67.2041 195.07,66.5375 196.5,65.5C 197.5,65.5 198.5,65.5 199.5,65.5C 201.898,65.7406 203.898,65.0739 205.5,63.5C 206.167,63.5 206.833,63.5 207.5,63.5C 210.833,63.5 214.167,63.5 217.5,63.5C 236.817,62.607 256.15,62.2737 275.5,62.5C 279.099,63.3439 282.766,63.6773 286.5,63.5C 288.5,63.5 290.5,63.5 292.5,63.5C 293.514,64.6737 294.847,65.3404 296.5,65.5C 301.788,67.9325 307.455,69.2659 313.5,69.5C 315.993,71.5838 318.66,71.9171 321.5,70.5C 323.076,69.8571 324.41,68.8571 325.5,67.5C 331.055,64.617 335.722,60.617 339.5,55.5C 339.557,54.391 339.89,53.391 340.5,52.5C 341.391,51.8902 342.391,51.5569 343.5,51.5C 345.932,50.2498 348.266,48.7498 350.5,47C 351.252,46.3292 351.586,45.4959 351.5,44.5C 351.842,43.6618 352.508,43.3284 353.5,43.5C 357.392,41.9379 360.725,39.6046 363.5,36.5C 367.689,35.7858 371.022,33.7858 373.5,30.5C 379.189,29.4722 384.523,27.6389 389.5,25C 394.864,24.1705 400.198,24.3372 405.5,25.5C 406.243,26.1818 406.909,26.8485 407.5,27.5C 397.281,37.8915 387.114,48.5581 377,59.5C 375.209,65.7428 372.876,71.7428 370,77.5C 368.599,85.9866 369.932,93.9866 374,101.5C 377.59,105.702 380.923,110.035 384,114.5C 388.426,119.434 393.26,123.767 398.5,127.5C 398.185,131.371 398.518,135.038 399.5,138.5C 400.024,140.306 400.691,141.972 401.5,143.5C 401.259,145.898 401.926,147.898 403.5,149.5C 404.6,150.605 405.267,151.938 405.5,153.5C 406.315,157.144 407.148,160.811 408,164.5C 409.584,167.266 411.084,169.933 412.5,172.5C 415.991,191.323 417.158,210.323 416,229.5C 415.329,230.252 414.496,230.586 413.5,230.5C 405.786,211.905 393.119,197.738 375.5,188C 372.061,185.861 368.894,183.361 366,180.5C 361.651,171.802 357.318,163.136 353,154.5C 349.301,149.973 345.468,145.639 341.5,141.5C 340.69,138.354 338.69,136.687 335.5,136.5C 335.5,135.5 335.5,134.5 335.5,133.5C 333.325,133.318 331.325,132.651 329.5,131.5C 320.684,132.112 312.018,132.779 303.5,133.5C 290.048,137.952 280.382,146.619 274.5,159.5C 273.736,161.74 272.902,164.073 272,166.5C 271.753,172.882 271.253,179.215 270.5,185.5C 269.069,187.437 267.402,189.27 265.5,191C 254.167,191.667 242.833,191.667 231.5,191C 230.177,190.184 229.511,189.017 229.5,187.5C 227.881,182.006 227.048,176.339 227,170.5C 226.617,169.944 226.117,169.611 225.5,169.5C 222.883,152.541 213.55,140.875 197.5,134.5C 197.082,133.778 196.416,133.278 195.5,133C 187.5,132.333 179.5,132.333 171.5,133C 170.944,133.383 170.611,133.883 170.5,134.5C 164.319,137.175 158.486,140.509 153,144.5C 148.934,149.564 145.268,154.898 142,160.5C 139.904,169.757 135.404,177.59 128.5,184C 114.226,191.103 102.559,201.27 93.5,214.5C 91.8569,217.445 90.5236,220.445 89.5,223.5C 87.3311,225.34 85.9977,227.674 85.5,230.5C 84.5,230.5 83.5,230.5 82.5,230.5C 82.3334,216.829 82.5001,203.163 83,189.5C 83.5354,191.271 84.3687,191.604 85.5,190.5C 84.4149,187.227 84.2483,183.894 85,180.5C 86.8069,175.247 88.3069,169.914 89.5,164.5C 91.5034,161.474 93.8368,159.474 96.5,158.5C 95.3887,157.389 94.722,156.055 94.5,154.5C 96.4528,150.024 97.7862,145.357 98.5,140.5C 99.436,136.265 99.7693,131.931 99.5,127.5C 100.552,127.649 101.552,127.483 102.5,127C 108.027,121.473 113.527,115.973 119,110.5C 119.561,107.71 120.894,105.377 123,103.5C 128.674,93.4294 130.008,82.7627 127,71.5C 120.995,58.5345 112.328,47.5345 101,38.5C 97.595,34.6907 94.4283,30.6907 91.5,26.5C 92.1667,25.5 92.8333,24.5 93.5,23.5C 97.88,22.3046 102.213,22.3046 106.5,23.5 Z"/></g>
<g><path style="opacity:1" fill="#e8b562" d="M 373.5,30.5 C 371.022,33.7858 367.689,35.7858 363.5,36.5C 366.242,33.5787 369.575,31.5787 373.5,30.5 Z"/></g>
<g><path style="opacity:0.714" fill="#e9be75" d="M 363.5,36.5 C 360.725,39.6046 357.392,41.9379 353.5,43.5C 356.275,40.3954 359.608,38.0621 363.5,36.5 Z"/></g>
<g><path style="opacity:1" fill="#f6830f" d="M 91.5,26.5 C 94.4283,30.6907 97.595,34.6907 101,38.5C 112.328,47.5345 120.995,58.5345 127,71.5C 130.008,82.7627 128.674,93.4294 123,103.5C 120.894,105.377 119.561,107.71 119,110.5C 113.527,115.973 108.027,121.473 102.5,127C 101.552,127.483 100.552,127.649 99.5,127.5C 99.678,123.878 99.0114,120.544 97.5,117.5C 97.4828,115.435 97.1495,113.435 96.5,111.5C 97.3911,105.506 95.7245,100.506 91.5,96.5C 90.7849,90.8971 89.4515,85.5638 87.5,80.5C 87.8023,76.2095 87.1357,72.2095 85.5,68.5C 85.246,55.8032 85.5794,43.1365 86.5,30.5C 88.1667,29.1667 89.8333,27.8333 91.5,26.5 Z"/></g>
<g><path style="opacity:1" fill="#f4b65d" d="M 119.5,27.5 C 130.213,31.8921 139.879,37.8921 148.5,45.5C 145.861,45.4292 143.694,44.4292 142,42.5C 141.127,42.7355 140.293,43.0688 139.5,43.5C 138.289,42.7261 138.289,41.8928 139.5,41C 136.898,40.0649 134.898,38.3982 133.5,36C 128.012,34.3246 123.345,31.4913 119.5,27.5 Z"/></g>
<g><path style="opacity:1" fill="#f6830f" d="M 407.5,27.5 C 409.877,29.228 411.544,31.5614 412.5,34.5C 412.5,45.5 412.5,56.5 412.5,67.5C 412.5,69.5 412.5,71.5 412.5,73.5C 410.404,81.696 408.404,90.0293 406.5,98.5C 404.898,102.239 403.898,106.239 403.5,110.5C 403.011,111.995 402.345,113.329 401.5,114.5C 398.965,118.355 397.965,122.688 398.5,127.5C 393.26,123.767 388.426,119.434 384,114.5C 380.923,110.035 377.59,105.702 374,101.5C 369.932,93.9866 368.599,85.9866 370,77.5C 372.876,71.7428 375.209,65.7428 377,59.5C 387.114,48.5581 397.281,37.8915 407.5,27.5 Z"/></g>
<g><path style="opacity:0.49" fill="#f0c781" d="M 351.5,44.5 C 351.586,45.4959 351.252,46.3292 350.5,47C 348.266,48.7498 345.932,50.2498 343.5,51.5C 345.549,48.4503 348.216,46.117 351.5,44.5 Z"/></g>
<g><path style="opacity:0.976" fill="#eaa560" d="M 86.5,30.5 C 85.5794,43.1365 85.246,55.8032 85.5,68.5C 83.6289,58.7167 83.1289,48.7167 84,38.5C 84.2794,35.5432 85.1127,32.8766 86.5,30.5 Z"/></g>
<g><path style="opacity:0.996" fill="#ebaa48" d="M 148.5,45.5 C 151.99,48.4113 155.656,51.078 159.5,53.5C 159.5,54.1667 159.5,54.8333 159.5,55.5C 156.35,53.451 153.016,51.7843 149.5,50.5C 149.371,48.7839 149.038,47.1172 148.5,45.5 Z"/></g>
<g><path style="opacity:1" fill="#41a6a6" d="M 340.5,52.5 C 339.89,53.391 339.557,54.391 339.5,55.5C 334.533,59.1322 329.867,63.1322 325.5,67.5C 322.221,68.4922 318.888,68.6588 315.5,68C 306.714,64.0495 297.381,61.8829 287.5,61.5C 267.671,60.1721 248.004,60.1721 228.5,61.5C 227.167,61.5 225.833,61.5 224.5,61.5C 218.611,61.4497 212.944,62.1164 207.5,63.5C 206.833,63.5 206.167,63.5 205.5,63.5C 203.102,63.2594 201.102,63.9261 199.5,65.5C 198.5,65.5 197.5,65.5 196.5,65.5C 193.848,65.4095 191.515,66.0762 189.5,67.5C 185.028,69.2157 180.362,69.8824 175.5,69.5C 172.769,65.7657 169.436,62.7657 165.5,60.5C 163.817,58.4864 161.817,56.8198 159.5,55.5C 159.5,54.8333 159.5,54.1667 159.5,53.5C 174.858,45.5467 191.192,40.0467 208.5,37C 254.124,29.0929 298.124,34.2595 340.5,52.5 Z"/></g>
<g><path style="opacity:1" fill="#ec943e" d="M 412.5,34.5 C 413.167,35.5 413.833,36.5 414.5,37.5C 415.705,46.1123 415.705,54.7789 414.5,63.5C 413.833,64.8333 413.167,66.1667 412.5,67.5C 412.5,56.5 412.5,45.5 412.5,34.5 Z"/></g>
<g><path style="opacity:1" fill="#bda752" d="M 339.5,55.5 C 335.722,60.617 331.055,64.617 325.5,67.5C 329.867,63.1322 334.533,59.1322 339.5,55.5 Z"/></g>
<g><path style="opacity:1" fill="#d8ad45" d="M 224.5,61.5 C 225.833,61.5 227.167,61.5 228.5,61.5C 244.167,61.5 259.833,61.5 275.5,61.5C 275.5,61.8333 275.5,62.1667 275.5,62.5C 256.15,62.2737 236.817,62.607 217.5,63.5C 219.833,62.8333 222.167,62.1667 224.5,61.5 Z"/></g>
<g><path style="opacity:1" fill="#9da866" d="M 224.5,61.5 C 222.167,62.1667 219.833,62.8333 217.5,63.5C 214.167,63.5 210.833,63.5 207.5,63.5C 212.944,62.1164 218.611,61.4497 224.5,61.5 Z"/></g>
<g><path style="opacity:1" fill="#a2a864" d="M 275.5,62.5 C 275.5,62.1667 275.5,61.8333 275.5,61.5C 279.489,61.1164 283.155,61.783 286.5,63.5C 282.766,63.6773 279.099,63.3439 275.5,62.5 Z"/></g>
<g><path style="opacity:1" fill="#639d82" d="M 228.5,61.5 C 248.004,60.1721 267.671,60.1721 287.5,61.5C 297.381,61.8829 306.714,64.0495 315.5,68C 318.888,68.6588 322.221,68.4922 325.5,67.5C 324.41,68.8571 323.076,69.8571 321.5,70.5C 318.833,70.1667 316.167,69.8333 313.5,69.5C 308.899,67.098 303.899,65.7647 298.5,65.5C 296.898,63.9261 294.898,63.2594 292.5,63.5C 290.5,63.5 288.5,63.5 286.5,63.5C 283.155,61.783 279.489,61.1164 275.5,61.5C 259.833,61.5 244.167,61.5 228.5,61.5 Z"/></g>
<g><path style="opacity:1" fill="#aba75f" d="M 205.5,63.5 C 203.898,65.0739 201.898,65.7406 199.5,65.5C 201.102,63.9261 203.102,63.2594 205.5,63.5 Z"/></g>
<g><path style="opacity:1" fill="#a8a75f" d="M 292.5,63.5 C 294.898,63.2594 296.898,63.9261 298.5,65.5C 297.833,65.5 297.167,65.5 296.5,65.5C 294.847,65.3404 293.514,64.6737 292.5,63.5 Z"/></g>
<g><path style="opacity:1" fill="#a1a761" d="M 165.5,60.5 C 169.436,62.7657 172.769,65.7657 175.5,69.5C 171.564,67.2343 168.231,64.2343 165.5,60.5 Z"/></g>
<g><path style="opacity:1" fill="#a3a55f" d="M 196.5,65.5 C 195.07,66.5375 193.403,67.2041 191.5,67.5C 190.833,67.5 190.167,67.5 189.5,67.5C 191.515,66.0762 193.848,65.4095 196.5,65.5 Z"/></g>
<g><path style="opacity:1" fill="#d6a843" d="M 296.5,65.5 C 297.167,65.5 297.833,65.5 298.5,65.5C 303.899,65.7647 308.899,67.098 313.5,69.5C 307.455,69.2659 301.788,67.9325 296.5,65.5 Z"/></g>
<g><path style="opacity:1" fill="#cea946" d="M 189.5,67.5 C 190.167,67.5 190.833,67.5 191.5,67.5C 188.254,70.1022 184.42,71.4355 180,71.5C 178.124,71.4753 176.624,70.8086 175.5,69.5C 180.362,69.8824 185.028,69.2157 189.5,67.5 Z"/></g>
<g><path style="opacity:1" fill="#beac55" d="M 313.5,69.5 C 316.167,69.8333 318.833,70.1667 321.5,70.5C 318.66,71.9171 315.993,71.5838 313.5,69.5 Z"/></g>
<g><path style="opacity:0.224" fill="#fcce9b" d="M 414.5,63.5 C 414.451,67.0781 413.785,70.4115 412.5,73.5C 412.5,71.5 412.5,69.5 412.5,67.5C 413.167,66.1667 413.833,64.8333 414.5,63.5 Z"/></g>
<g><path style="opacity:0.733" fill="#eab374" d="M 85.5,68.5 C 87.1357,72.2095 87.8023,76.2095 87.5,80.5C 86.2053,76.7329 85.5387,72.7329 85.5,68.5 Z"/></g>
<g><path style="opacity:1" fill="#e9a661" d="M 412.5,73.5 C 411.743,81.5498 410.076,89.3832 407.5,97C 408.056,97.3826 408.389,97.8826 408.5,98.5C 407.833,98.5 407.167,98.5 406.5,98.5C 408.404,90.0293 410.404,81.696 412.5,73.5 Z"/></g>
<g><path style="opacity:0.302" fill="#ecb276" d="M 87.5,80.5 C 89.4515,85.5638 90.7849,90.8971 91.5,96.5C 89.2941,91.497 87.9608,86.1636 87.5,80.5 Z"/></g>
<g><path style="opacity:1" fill="#d38d34" d="M 91.5,96.5 C 95.7245,100.506 97.3911,105.506 96.5,111.5C 96.1667,111.5 95.8333,111.5 95.5,111.5C 94.4653,106.686 93.1319,102.019 91.5,97.5C 91.5,97.1667 91.5,96.8333 91.5,96.5 Z"/></g>
<g><path style="opacity:1" fill="#699b85" d="M 406.5,98.5 C 407.167,98.5 407.833,98.5 408.5,98.5C 409.323,100.455 409.49,102.455 409,104.5C 408.333,105.833 407.667,105.833 407,104.5C 406.059,106.727 404.892,108.727 403.5,110.5C 403.898,106.239 404.898,102.239 406.5,98.5 Z"/></g>
<g><path style="opacity:1" fill="#41a6a6" d="M 91.5,97.5 C 93.1319,102.019 94.4653,106.686 95.5,111.5C 95.2594,113.898 95.9261,115.898 97.5,117.5C 98.5039,125.186 98.5039,132.853 97.5,140.5C 96.6717,147.644 94.005,153.978 89.5,159.5C 87.3697,163.334 85.5364,167.334 84,171.5C 81.6284,177.96 80.4617,184.627 80.5,191.5C 79.8339,196.99 79.5005,202.657 79.5,208.5C 79.5045,214.542 80.1712,220.208 81.5,225.5C 81.2155,227.415 81.5489,229.081 82.5,230.5C 82.4326,231.959 82.7659,233.292 83.5,234.5C 84.8441,245.777 88.5108,256.111 94.5,265.5C 93.2502,265.577 92.4169,266.244 92,267.5C 90.2511,274.076 89.0845,280.743 88.5,287.5C 86.8255,290.507 86.1588,293.84 86.5,297.5C 84.8887,301.99 84.222,306.657 84.5,311.5C 82.6225,321.962 81.2892,332.629 80.5,343.5C 80.5,344.167 80.5,344.833 80.5,345.5C 77.8574,357.003 75.5241,368.669 73.5,380.5C 47.4462,347.221 32.6128,309.221 29,266.5C 26.2025,212.826 40.2025,164.16 71,120.5C 77.6701,112.665 84.5034,104.998 91.5,97.5 Z"/></g>
<g><path style="opacity:1" fill="#9c945a" d="M 95.5,111.5 C 95.8333,111.5 96.1667,111.5 96.5,111.5C 97.1495,113.435 97.4828,115.435 97.5,117.5C 95.9261,115.898 95.2594,113.898 95.5,111.5 Z"/></g>
<g><path style="opacity:1" fill="#d89431" d="M 401.5,114.5 C 401.5,115.833 401.5,117.167 401.5,118.5C 400.732,119.263 400.232,120.263 400,121.5C 399.501,127.157 399.334,132.824 399.5,138.5C 398.518,135.038 398.185,131.371 398.5,127.5C 397.965,122.688 398.965,118.355 401.5,114.5 Z"/></g>
<g><path style="opacity:1" fill="#96995e" d="M 97.5,117.5 C 99.0114,120.544 99.678,123.878 99.5,127.5C 99.7693,131.931 99.436,136.265 98.5,140.5C 98.1667,140.5 97.8333,140.5 97.5,140.5C 98.5039,132.853 98.5039,125.186 97.5,117.5 Z"/></g>
<g><path style="opacity:1" fill="#41a6a7" d="M 408.5,98.5 C 457.102,150.148 476.936,211.481 468,282.5C 462.352,318.321 448.852,350.654 427.5,379.5C 426.503,379.53 425.836,379.03 425.5,378C 422.414,366.994 420.081,355.827 418.5,344.5C 417.284,330.145 415.784,315.812 414,301.5C 413.317,296.56 412.15,291.893 410.5,287.5C 410.844,281.421 409.844,275.588 407.5,270C 406.486,267.971 405.153,267.471 403.5,268.5C 409.027,257.736 413.027,246.402 415.5,234.5C 417.091,231.039 417.758,227.372 417.5,223.5C 418.827,219.217 419.493,214.551 419.5,209.5C 419.333,204.833 419.167,200.167 419,195.5C 418.79,193.942 418.29,192.609 417.5,191.5C 417.042,187.462 416.376,183.462 415.5,179.5C 415.232,176.26 414.566,173.094 413.5,170C 413.164,168.97 412.497,168.47 411.5,168.5C 410.652,162.941 408.652,157.941 405.5,153.5C 405.267,151.938 404.6,150.605 403.5,149.5C 403.741,147.102 403.074,145.102 401.5,143.5C 400.249,135.163 400.249,126.83 401.5,118.5C 401.5,117.167 401.5,115.833 401.5,114.5C 402.345,113.329 403.011,111.995 403.5,110.5C 404.892,108.727 406.059,106.727 407,104.5C 407.667,105.833 408.333,105.833 409,104.5C 409.49,102.455 409.323,100.455 408.5,98.5 Z"/></g>
<g><path style="opacity:1" fill="#8a9b68" d="M 401.5,118.5 C 400.249,126.83 400.249,135.163 401.5,143.5C 400.691,141.972 400.024,140.306 399.5,138.5C 399.334,132.824 399.501,127.157 400,121.5C 400.232,120.263 400.732,119.263 401.5,118.5 Z"/></g>
<g><path style="opacity:1" fill="#f5b451" d="M 197.5,134.5 C 188.48,133.228 179.48,133.228 170.5,134.5C 170.611,133.883 170.944,133.383 171.5,133C 179.5,132.333 187.5,132.333 195.5,133C 196.416,133.278 197.082,133.778 197.5,134.5 Z"/></g>
<g><path style="opacity:1" fill="#f6ab3c" d="M 341.5,141.5 C 329.986,134.073 317.319,131.406 303.5,133.5C 312.018,132.779 320.684,132.112 329.5,131.5C 331.325,132.651 333.325,133.318 335.5,133.5C 335.5,134.5 335.5,135.5 335.5,136.5C 338.69,136.687 340.69,138.354 341.5,141.5 Z"/></g>
<g><path style="opacity:1" fill="#fcf1d9" d="M 197.5,134.5 C 213.55,140.875 222.883,152.541 225.5,169.5C 225.588,174.536 226.088,179.536 227,184.5C 227.377,185.942 228.21,186.942 229.5,187.5C 229.511,189.017 230.177,190.184 231.5,191C 242.833,191.667 254.167,191.667 265.5,191C 267.402,189.27 269.069,187.437 270.5,185.5C 271.765,184.486 272.431,182.986 272.5,181C 273.424,173.851 274.091,166.685 274.5,159.5C 280.382,146.619 290.048,137.952 303.5,133.5C 317.319,131.406 329.986,134.073 341.5,141.5C 345.468,145.639 349.301,149.973 353,154.5C 357.318,163.136 361.651,171.802 366,180.5C 368.894,183.361 372.061,185.861 375.5,188C 393.119,197.738 405.786,211.905 413.5,230.5C 413.989,231.995 414.655,233.329 415.5,234.5C 413.027,246.402 409.027,257.736 403.5,268.5C 393.676,283.996 381.676,297.663 367.5,309.5C 365.193,309.986 363.027,309.986 361,309.5C 360.505,311.473 360.338,313.473 360.5,315.5C 358.473,315.338 356.473,315.505 354.5,316C 356.985,317.223 357.152,318.723 355,320.5C 354.586,320.043 354.086,319.709 353.5,319.5C 352.523,321.411 351.857,323.411 351.5,325.5C 346.644,333.226 341.311,340.559 335.5,347.5C 334.167,347.5 332.833,347.5 331.5,347.5C 331.981,351.349 330.314,353.349 326.5,353.5C 326.6,356.108 325.933,358.442 324.5,360.5C 323.022,360.238 321.689,360.571 320.5,361.5C 318.454,362.871 316.621,364.538 315,366.5C 313.959,363.364 314.793,360.864 317.5,359C 315.687,359.046 314.021,358.88 312.5,358.5C 311.479,362.526 310.479,366.526 309.5,370.5C 306.171,370.264 303.171,371.097 300.5,373C 301.167,373.333 301.833,373.667 302.5,374C 300.09,374.6 298.09,375.766 296.5,377.5C 291.151,380.171 285.484,381.838 279.5,382.5C 259.114,385.293 238.78,385.126 218.5,382C 217.241,381.077 215.908,380.243 214.5,379.5C 215.506,378.604 215.506,377.938 214.5,377.5C 212.232,378.544 209.899,378.711 207.5,378C 202.351,375.672 197.018,373.839 191.5,372.5C 191.586,371.504 191.252,370.671 190.5,370C 192.107,368.951 192.773,367.451 192.5,365.5C 189.537,365.849 187.204,364.849 185.5,362.5C 182.055,365.575 180.055,364.908 179.5,360.5C 178.127,360.657 176.793,360.49 175.5,360C 171.938,356.942 168.938,353.442 166.5,349.5C 165.675,348.614 164.675,348.281 163.5,348.5C 158.75,342.423 154.417,336.09 150.5,329.5C 150.822,327.278 150.155,325.444 148.5,324C 148.957,323.586 149.291,323.086 149.5,322.5C 142.981,320.152 138.147,315.819 135,309.5C 132.094,307.009 129.094,304.676 126,302.5C 125.383,301.551 125.549,300.718 126.5,300C 122.933,298.889 119.6,297.389 116.5,295.5C 107.704,286.574 100.37,276.574 94.5,265.5C 88.5108,256.111 84.8441,245.777 83.5,234.5C 86.7748,231.624 88.7748,227.957 89.5,223.5C 90.5236,220.445 91.8569,217.445 93.5,214.5C 102.559,201.27 114.226,191.103 128.5,184C 135.404,177.59 139.904,169.757 142,160.5C 145.268,154.898 148.934,149.564 153,144.5C 158.486,140.509 164.319,137.175 170.5,134.5C 179.48,133.228 188.48,133.228 197.5,134.5 Z"/></g>
<g><path style="opacity:1" fill="#bcaa57" d="M 401.5,143.5 C 403.074,145.102 403.741,147.102 403.5,149.5C 401.926,147.898 401.259,145.898 401.5,143.5 Z"/></g>
<g><path style="opacity:1" fill="#e6a736" d="M 97.5,140.5 C 97.8333,140.5 98.1667,140.5 98.5,140.5C 97.7862,145.357 96.4528,150.024 94.5,154.5C 94.722,156.055 95.3887,157.389 96.5,158.5C 93.8368,159.474 91.5034,161.474 89.5,164.5C 89.5,162.833 89.5,161.167 89.5,159.5C 94.005,153.978 96.6717,147.644 97.5,140.5 Z"/></g>
<g><path style="opacity:1" fill="#829f69" d="M 411.5,168.5 C 412.497,168.47 413.164,168.97 413.5,170C 414.566,173.094 415.232,176.26 415.5,179.5C 414.349,177.221 413.349,174.888 412.5,172.5C 412.167,171.167 411.833,169.833 411.5,168.5 Z"/></g>
<g><path style="opacity:1" fill="#d7a942" d="M 405.5,153.5 C 408.652,157.941 410.652,162.941 411.5,168.5C 411.833,169.833 412.167,171.167 412.5,172.5C 411.084,169.933 409.584,167.266 408,164.5C 407.148,160.811 406.315,157.144 405.5,153.5 Z"/></g>
<g><path style="opacity:1" fill="#2b2d4b" d="M 176.5,171.5 C 191.374,168.868 198.207,175.201 197,190.5C 193.337,199.916 186.504,203.416 176.5,201C 166.165,194.934 163.831,186.768 169.5,176.5C 168.632,180.808 168.466,185.141 169,189.5C 170.167,187.833 171.333,186.167 172.5,184.5C 173.308,184.808 173.975,185.308 174.5,186C 174.023,188.899 173.023,191.566 171.5,194C 172.973,194.71 173.64,195.876 173.5,197.5C 177.924,199.213 182.591,199.88 187.5,199.5C 188.031,196.221 190.031,194.887 193.5,195.5C 193.756,193.208 193.423,191.041 192.5,189C 194.361,187.972 195.695,186.472 196.5,184.5C 194.768,182.082 193.435,179.415 192.5,176.5C 187.727,173.244 182.394,171.577 176.5,171.5 Z"/></g>
<g><path style="opacity:1" fill="#f0ad50" d="M 225.5,169.5 C 226.117,169.611 226.617,169.944 227,170.5C 227.048,176.339 227.881,182.006 229.5,187.5C 228.21,186.942 227.377,185.942 227,184.5C 226.088,179.536 225.588,174.536 225.5,169.5 Z"/></g>
<g><path style="opacity:1" fill="#232a52" d="M 330.5,180.5 C 332.858,187.695 331.192,193.695 325.5,198.5C 322.275,198.411 319.275,199.077 316.5,200.5C 314.681,200.658 313.348,199.991 312.5,198.5C 314.743,197.526 317.076,197.192 319.5,197.5C 319.5,196.167 319.5,194.833 319.5,193.5C 316.455,193.704 313.621,193.704 311,193.5C 310.576,197.19 309.742,197.357 308.5,194C 307.207,193.51 305.873,193.343 304.5,193.5C 303.771,190.72 303.104,187.887 302.5,185C 302.334,181.835 303.667,179.668 306.5,178.5C 307.074,176.941 307.74,175.441 308.5,174C 314.32,173.05 319.987,173.55 325.5,175.5C 326.855,177.521 328.521,179.188 330.5,180.5 Z"/></g>
<g><path style="opacity:1" fill="#222a51" d="M 176.5,171.5 C 182.394,171.577 187.727,173.244 192.5,176.5C 193.435,179.415 194.768,182.082 196.5,184.5C 195.695,186.472 194.361,187.972 192.5,189C 193.423,191.041 193.756,193.208 193.5,195.5C 190.031,194.887 188.031,196.221 187.5,199.5C 182.591,199.88 177.924,199.213 173.5,197.5C 173.64,195.876 172.973,194.71 171.5,194C 173.023,191.566 174.023,188.899 174.5,186C 173.975,185.308 173.308,184.808 172.5,184.5C 171.333,186.167 170.167,187.833 169,189.5C 168.466,185.141 168.632,180.808 169.5,176.5C 170.992,173.677 173.326,172.01 176.5,171.5 Z"/></g>
<g><path style="opacity:1" fill="#68a085" d="M 89.5,159.5 C 89.5,161.167 89.5,162.833 89.5,164.5C 88.0269,166.583 86.8602,168.916 86,171.5C 84.3832,178.231 82.8832,184.898 81.5,191.5C 81.1667,191.5 80.8333,191.5 80.5,191.5C 80.4617,184.627 81.6284,177.96 84,171.5C 85.5364,167.334 87.3697,163.334 89.5,159.5 Z"/></g>
<g><path style="opacity:1" fill="#fee6b2" d="M 274.5,159.5 C 274.091,166.685 273.424,173.851 272.5,181C 272.431,182.986 271.765,184.486 270.5,185.5C 271.253,179.215 271.753,172.882 272,166.5C 272.902,164.073 273.736,161.74 274.5,159.5 Z"/></g>
<g><path style="opacity:1" fill="#292e4d" d="M 330.5,180.5 C 328.521,179.188 326.855,177.521 325.5,175.5C 319.987,173.55 314.32,173.05 308.5,174C 307.74,175.441 307.074,176.941 306.5,178.5C 303.667,179.668 302.334,181.835 302.5,185C 303.104,187.887 303.771,190.72 304.5,193.5C 305.873,193.343 307.207,193.51 308.5,194C 309.742,197.357 310.576,197.19 311,193.5C 313.621,193.704 316.455,193.704 319.5,193.5C 319.5,194.833 319.5,196.167 319.5,197.5C 317.076,197.192 314.743,197.526 312.5,198.5C 313.348,199.991 314.681,200.658 316.5,200.5C 319.275,199.077 322.275,198.411 325.5,198.5C 315.022,204.301 306.855,201.967 301,191.5C 299.958,173.212 308.125,167.046 325.5,173C 328.2,174.857 329.866,177.357 330.5,180.5 Z"/></g>
<g><path style="opacity:1" fill="#e5a838" d="M 89.5,164.5 C 88.3069,169.914 86.8069,175.247 85,180.5C 84.2483,183.894 84.4149,187.227 85.5,190.5C 84.3687,191.604 83.5354,191.271 83,189.5C 82.5001,203.163 82.3334,216.829 82.5,230.5C 81.5489,229.081 81.2155,227.415 81.5,225.5C 81.5,214.167 81.5,202.833 81.5,191.5C 82.8832,184.898 84.3832,178.231 86,171.5C 86.8602,168.916 88.0269,166.583 89.5,164.5 Z"/></g>
<g><path style="opacity:1" fill="#e1a93d" d="M 412.5,172.5 C 413.349,174.888 414.349,177.221 415.5,179.5C 416.376,183.462 417.042,187.462 417.5,191.5C 417.5,202.167 417.5,212.833 417.5,223.5C 417.758,227.372 417.091,231.039 415.5,234.5C 414.655,233.329 413.989,231.995 413.5,230.5C 414.496,230.586 415.329,230.252 416,229.5C 417.158,210.323 415.991,191.323 412.5,172.5 Z"/></g>
<g><path style="opacity:1" fill="#aba75e" d="M 80.5,191.5 C 80.8333,191.5 81.1667,191.5 81.5,191.5C 81.5,202.833 81.5,214.167 81.5,225.5C 80.1712,220.208 79.5045,214.542 79.5,208.5C 79.5005,202.657 79.8339,196.99 80.5,191.5 Z"/></g>
<g><path style="opacity:1" fill="#ada75b" d="M 417.5,191.5 C 418.29,192.609 418.79,193.942 419,195.5C 419.167,200.167 419.333,204.833 419.5,209.5C 419.493,214.551 418.827,219.217 417.5,223.5C 417.5,212.833 417.5,202.167 417.5,191.5 Z"/></g>
<g><path style="opacity:1" fill="#f8dc9f" d="M 89.5,223.5 C 88.7748,227.957 86.7748,231.624 83.5,234.5C 82.7659,233.292 82.4326,231.959 82.5,230.5C 83.5,230.5 84.5,230.5 85.5,230.5C 85.9977,227.674 87.3311,225.34 89.5,223.5 Z"/></g>
<g><path style="opacity:1" fill="#242b50" d="M 233.5,233.5 C 244.505,233.333 255.505,233.5 266.5,234C 277.538,237.57 281.705,245.07 279,256.5C 278.079,259.336 276.912,262.002 275.5,264.5C 270.209,269.979 263.875,273.645 256.5,275.5C 256.215,278.829 256.882,281.829 258.5,284.5C 259.048,286.394 260.048,288.06 261.5,289.5C 274.166,295.776 285.333,293.776 295,283.5C 298.28,279.342 300.613,274.675 302,269.5C 308.925,256.847 319.425,250.68 333.5,251C 336.194,253.653 337.027,256.82 336,260.5C 332.628,263.269 328.795,265.102 324.5,266C 322.241,267.715 320.074,269.548 318,271.5C 313.814,281.74 307.981,290.907 300.5,299C 298.246,300.377 296.08,301.877 294,303.5C 291.889,314.007 287.389,323.34 280.5,331.5C 266.764,344.753 250.764,348.419 232.5,342.5C 217.408,334.224 208.241,321.558 205,304.5C 201.333,301.5 197.667,298.5 194,295.5C 188.893,288.288 184.56,280.621 181,272.5C 175.802,267.565 169.802,263.899 163,261.5C 160.681,251.489 164.514,247.989 174.5,251C 182.024,253.508 188.191,258.008 193,264.5C 196.588,270.675 199.922,277.009 203,283.5C 211.866,292.787 222.366,295.287 234.5,291C 239.996,287.372 242.33,282.205 241.5,275.5C 230.721,272.556 223.221,265.89 219,255.5C 217.143,243.842 221.977,236.509 233.5,233.5 Z"/></g>
<g><path style="opacity:1" fill="#e1dbd3" d="M 233.5,233.5 C 244.659,232.341 255.992,232.174 267.5,233C 273.965,234.334 278.465,238.168 281,244.5C 281.333,249.167 281.667,253.833 282,258.5C 283.011,259.337 284.178,259.67 285.5,259.5C 285.773,261.958 284.773,263.625 282.5,264.5C 281.719,263.271 281.219,261.938 281,260.5C 279.549,262.464 277.716,263.797 275.5,264.5C 276.912,262.002 278.079,259.336 279,256.5C 281.705,245.07 277.538,237.57 266.5,234C 255.505,233.5 244.505,233.333 233.5,233.5 Z"/></g>
<g><path style="opacity:1" fill="#ece9e3" d="M 275.5,264.5 C 274.457,267.056 272.79,269.223 270.5,271C 267.429,273.63 263.929,275.464 260,276.5C 259.817,279.365 259.317,282.031 258.5,284.5C 256.882,281.829 256.215,278.829 256.5,275.5C 263.875,273.645 270.209,269.979 275.5,264.5 Z"/></g>
<g><path style="opacity:1" fill="#b9e3e3" d="M 88.5,287.5 C 88.5359,292.93 89.2026,298.263 90.5,303.5C 89.6942,302.003 89.0276,300.336 88.5,298.5C 88.0431,297.702 87.3764,297.369 86.5,297.5C 86.1588,293.84 86.8255,290.507 88.5,287.5 Z"/></g>
<g><path style="opacity:1" fill="#0a99ce" d="M 94.5,265.5 C 100.37,276.574 107.704,286.574 116.5,295.5C 128.167,306.5 139.5,317.833 150.5,329.5C 154.417,336.09 158.75,342.423 163.5,348.5C 171.011,358.681 180.344,366.681 191.5,372.5C 195.258,374.935 199.258,377.102 203.5,379C 228.594,387.295 253.927,388.462 279.5,382.5C 285.484,381.838 291.151,380.171 296.5,377.5C 307.129,373.857 316.463,368.19 324.5,360.5C 328.513,356.485 332.179,352.152 335.5,347.5C 341.311,340.559 346.644,333.226 351.5,325.5C 356.833,320.167 362.167,314.833 367.5,309.5C 381.676,297.663 393.676,283.996 403.5,268.5C 405.153,267.471 406.486,267.971 407.5,270C 409.844,275.588 410.844,281.421 410.5,287.5C 409.131,301.308 405.131,314.308 398.5,326.5C 381.928,357.457 357.928,380.79 326.5,396.5C 315.443,400.669 304.443,404.669 293.5,408.5C 292.833,408.5 292.167,408.5 291.5,408.5C 284.999,409.595 278.666,410.928 272.5,412.5C 272.167,412.5 271.833,412.5 271.5,412.5C 250.026,413.361 228.692,412.195 207.5,409C 203.083,408.301 199.083,406.801 195.5,404.5C 186.832,401.007 178.166,397.173 169.5,393C 168.207,392.51 166.873,392.343 165.5,392.5C 160.15,389.472 154.816,386.472 149.5,383.5C 140.845,376.012 132.345,368.345 124,360.5C 115.151,350.102 107.318,339.102 100.5,327.5C 98.6589,322.484 96.3256,317.818 93.5,313.5C 93.0246,309.916 92.0246,306.583 90.5,303.5C 89.2026,298.263 88.5359,292.93 88.5,287.5C 89.0845,280.743 90.2511,274.076 92,267.5C 92.4169,266.244 93.2502,265.577 94.5,265.5 Z"/></g>
<g><path style="opacity:1" fill="#dd3446" d="M 255.5,303.5 C 257.514,303.392 259.18,304.058 260.5,305.5C 260.611,306.117 260.944,306.617 261.5,307C 265.953,307.868 270.287,309.035 274.5,310.5C 274.5,311.5 274.5,312.5 274.5,313.5C 273.325,313.281 272.325,313.614 271.5,314.5C 272.711,315.72 272.711,316.887 271.5,318C 269.942,318.21 268.609,318.71 267.5,319.5C 256.09,316.671 244.757,316.838 233.5,320C 232.62,321.356 232.286,322.856 232.5,324.5C 226.727,320.388 222.394,315.055 219.5,308.5C 224.456,307.506 229.456,307.173 234.5,307.5C 239.905,305.645 245.072,303.312 250,300.5C 251.482,302.112 253.315,303.112 255.5,303.5 Z"/></g>
<g><path style="opacity:1" fill="#b63c55" d="M 255.5,303.5 C 253.315,303.112 251.482,302.112 250,300.5C 245.072,303.312 239.905,305.645 234.5,307.5C 239.774,304.99 244.608,301.656 249,297.5C 251.669,299.004 253.836,301.004 255.5,303.5 Z"/></g>
<g><path style="opacity:1" fill="#e9f3ea" d="M 116.5,295.5 C 119.6,297.389 122.933,298.889 126.5,300C 125.549,300.718 125.383,301.551 126,302.5C 129.094,304.676 132.094,307.009 135,309.5C 138.147,315.819 142.981,320.152 149.5,322.5C 149.291,323.086 148.957,323.586 148.5,324C 150.155,325.444 150.822,327.278 150.5,329.5C 139.5,317.833 128.167,306.5 116.5,295.5 Z"/></g>
<g><path style="opacity:1" fill="#c73b4e" d="M 260.5,305.5 C 266.011,307.21 271.677,307.877 277.5,307.5C 276.191,314.122 272.858,319.455 267.5,323.5C 267.5,322.167 267.5,320.833 267.5,319.5C 268.609,318.71 269.942,318.21 271.5,318C 272.711,316.887 272.711,315.72 271.5,314.5C 272.325,313.614 273.325,313.281 274.5,313.5C 274.5,312.5 274.5,311.5 274.5,310.5C 270.287,309.035 265.953,307.868 261.5,307C 260.944,306.617 260.611,306.117 260.5,305.5 Z"/></g>
<g><path style="opacity:1" fill="#e6f3e9" d="M 367.5,309.5 C 362.167,314.833 356.833,320.167 351.5,325.5C 351.857,323.411 352.523,321.411 353.5,319.5C 354.086,319.709 354.586,320.043 355,320.5C 357.152,318.723 356.985,317.223 354.5,316C 356.473,315.505 358.473,315.338 360.5,315.5C 360.338,313.473 360.505,311.473 361,309.5C 363.027,309.986 365.193,309.986 367.5,309.5 Z"/></g>
<g><path style="opacity:1" fill="#fa404e" d="M 267.5,319.5 C 267.5,320.833 267.5,322.167 267.5,323.5C 266.128,324.512 264.795,325.512 263.5,326.5C 261.421,326.971 259.421,327.637 257.5,328.5C 252.821,328.666 248.155,328.499 243.5,328C 239.952,326.413 236.285,325.246 232.5,324.5C 232.286,322.856 232.62,321.356 233.5,320C 244.757,316.838 256.09,316.671 267.5,319.5 Z"/></g>
<g><path style="opacity:1" fill="#d9e6cd" d="M 84.5,311.5 C 84.6662,317.509 84.4995,323.509 84,329.5C 83.1042,334.308 81.9376,338.975 80.5,343.5C 81.2892,332.629 82.6225,321.962 84.5,311.5 Z"/></g>
<g><path style="opacity:1" fill="#d0e6da" d="M 93.5,313.5 C 96.3256,317.818 98.6589,322.484 100.5,327.5C 98.9256,327.063 97.7589,326.063 97,324.5C 95.2683,321.031 94.1016,317.364 93.5,313.5 Z"/></g>
<g><path style="opacity:1" fill="#fcf1da" d="M 418.5,344.5 C 420.081,355.827 422.414,366.994 425.5,378C 425.836,379.03 426.503,379.53 427.5,379.5C 374.211,447.619 304.211,477.119 217.5,468C 180.128,461.636 146.461,447.136 116.5,424.5C 118.747,424.915 120.914,425.582 123,426.5C 126.848,425.352 128.681,427.018 128.5,431.5C 130.199,431.34 131.866,431.506 133.5,432C 136.825,433.917 139.658,436.417 142,439.5C 145.818,440.691 149.985,441.691 154.5,442.5C 156.274,437.619 158.607,432.952 161.5,428.5C 166.848,422.985 172.348,417.652 178,412.5C 178.483,411.552 178.649,410.552 178.5,409.5C 182.021,409.17 185.021,407.67 187.5,405C 186.944,404.617 186.611,404.117 186.5,403.5C 191.331,405.743 196.331,407.743 201.5,409.5C 210.103,411.43 218.77,412.93 227.5,414C 239.5,414.667 251.5,414.667 263.5,414C 266.365,413.817 269.031,413.317 271.5,412.5C 271.833,412.5 272.167,412.5 272.5,412.5C 277.552,412.55 282.552,412.05 287.5,411C 289.066,410.392 290.4,409.558 291.5,408.5C 292.167,408.5 292.833,408.5 293.5,408.5C 297.819,407.965 302.152,407.465 306.5,407C 308.335,404.371 310.669,403.871 313.5,405.5C 316.461,404.817 316.795,403.984 314.5,403C 319.039,401.568 323.039,399.402 326.5,396.5C 357.928,380.79 381.928,357.457 398.5,326.5C 399.458,326.047 400.292,325.381 401,324.5C 403.037,320.619 404.87,316.619 406.5,312.5C 407.325,311.614 408.325,311.281 409.5,311.5C 409.5,307.5 409.5,303.5 409.5,299.5C 410.5,299.5 411.5,299.5 412.5,299.5C 413.634,314.3 415.134,328.967 417,343.5C 417.383,344.056 417.883,344.389 418.5,344.5 Z"/></g>
<g><path style="opacity:1" fill="#ddf2e6" d="M 410.5,287.5 C 412.15,291.893 413.317,296.56 414,301.5C 415.784,315.812 417.284,330.145 418.5,344.5C 417.883,344.389 417.383,344.056 417,343.5C 415.134,328.967 413.634,314.3 412.5,299.5C 411.5,299.5 410.5,299.5 409.5,299.5C 409.5,303.5 409.5,307.5 409.5,311.5C 408.325,311.281 407.325,311.614 406.5,312.5C 404.87,316.619 403.037,320.619 401,324.5C 400.292,325.381 399.458,326.047 398.5,326.5C 405.131,314.308 409.131,301.308 410.5,287.5 Z"/></g>
<g><path style="opacity:1" fill="#d0465b" d="M 232.5,324.5 C 236.285,325.246 239.952,326.413 243.5,328C 248.155,328.499 252.821,328.666 257.5,328.5C 257.5,328.833 257.5,329.167 257.5,329.5C 251.157,330.834 244.824,330.668 238.5,329C 236.253,327.723 234.253,326.223 232.5,324.5 Z"/></g>
<g><path style="opacity:1" fill="#80314e" d="M 263.5,326.5 C 261.967,328.245 259.967,329.245 257.5,329.5C 257.5,329.167 257.5,328.833 257.5,328.5C 259.421,327.637 261.421,326.971 263.5,326.5 Z"/></g>
<g><path style="opacity:1" fill="#f1ebe5" d="M 280.5,331.5 C 280.649,332.552 280.483,333.552 280,334.5C 268.617,344.993 255.117,348.826 239.5,346C 237.5,345.667 235.5,345.333 233.5,345C 232.748,344.329 232.414,343.496 232.5,342.5C 250.764,348.419 266.764,344.753 280.5,331.5 Z"/></g>
<g><path style="opacity:1" fill="#f3e3c3" d="M 86.5,297.5 C 87.3764,297.369 88.0431,297.702 88.5,298.5C 89.0276,300.336 89.6942,302.003 90.5,303.5C 92.0246,306.583 93.0246,309.916 93.5,313.5C 94.1016,317.364 95.2683,321.031 97,324.5C 97.7589,326.063 98.9256,327.063 100.5,327.5C 107.318,339.102 115.151,350.102 124,360.5C 132.345,368.345 140.845,376.012 149.5,383.5C 152.284,386.163 155.45,388.497 159,390.5C 158.927,395.104 160.927,396.438 165,394.5C 169.917,397.211 175.084,399.211 180.5,400.5C 182.25,401.87 184.25,402.87 186.5,403.5C 186.611,404.117 186.944,404.617 187.5,405C 185.021,407.67 182.021,409.17 178.5,409.5C 178.649,410.552 178.483,411.552 178,412.5C 172.348,417.652 166.848,422.985 161.5,428.5C 158.607,432.952 156.274,437.619 154.5,442.5C 149.985,441.691 145.818,440.691 142,439.5C 139.658,436.417 136.825,433.917 133.5,432C 131.866,431.506 130.199,431.34 128.5,431.5C 128.681,427.018 126.848,425.352 123,426.5C 120.914,425.582 118.747,424.915 116.5,424.5C 106.264,416.936 96.931,408.269 88.5,398.5C 86.0442,393.02 82.7109,388.02 78.5,383.5C 77.2101,380.589 76.2101,377.589 75.5,374.5C 78.3976,365.138 80.0642,355.471 80.5,345.5C 80.5,344.833 80.5,344.167 80.5,343.5C 81.9376,338.975 83.1042,334.308 84,329.5C 84.4995,323.509 84.6662,317.509 84.5,311.5C 84.222,306.657 84.8887,301.99 86.5,297.5 Z"/></g>
<g><path style="opacity:1" fill="#daf1ec" d="M 335.5,347.5 C 332.179,352.152 328.513,356.485 324.5,360.5C 325.933,358.442 326.6,356.108 326.5,353.5C 330.314,353.349 331.981,351.349 331.5,347.5C 332.833,347.5 334.167,347.5 335.5,347.5 Z"/></g>
<g><path style="opacity:1" fill="#ecf1e4" d="M 163.5,348.5 C 164.675,348.281 165.675,348.614 166.5,349.5C 168.938,353.442 171.938,356.942 175.5,360C 176.793,360.49 178.127,360.657 179.5,360.5C 180.055,364.908 182.055,365.575 185.5,362.5C 187.204,364.849 189.537,365.849 192.5,365.5C 192.773,367.451 192.107,368.951 190.5,370C 191.252,370.671 191.586,371.504 191.5,372.5C 180.344,366.681 171.011,358.681 163.5,348.5 Z"/></g>
<g><path style="opacity:1" fill="#ecf2e4" d="M 324.5,360.5 C 316.463,368.19 307.129,373.857 296.5,377.5C 298.09,375.766 300.09,374.6 302.5,374C 301.833,373.667 301.167,373.333 300.5,373C 303.171,371.097 306.171,370.264 309.5,370.5C 310.479,366.526 311.479,362.526 312.5,358.5C 314.021,358.88 315.687,359.046 317.5,359C 314.793,360.864 313.959,363.364 315,366.5C 316.621,364.538 318.454,362.871 320.5,361.5C 321.689,360.571 323.022,360.238 324.5,360.5 Z"/></g>
<g><path style="opacity:1" fill="#d9efea" d="M 191.5,372.5 C 197.018,373.839 202.351,375.672 207.5,378C 209.899,378.711 212.232,378.544 214.5,377.5C 215.506,377.938 215.506,378.604 214.5,379.5C 215.908,380.243 217.241,381.077 218.5,382C 238.78,385.126 259.114,385.293 279.5,382.5C 253.927,388.462 228.594,387.295 203.5,379C 199.258,377.102 195.258,374.935 191.5,372.5 Z"/></g>
<g><path style="opacity:0.996" fill="#e5e5cf" d="M 80.5,345.5 C 80.0642,355.471 78.3976,365.138 75.5,374.5C 76.2101,377.589 77.2101,380.589 78.5,383.5C 82.7109,388.02 86.0442,393.02 88.5,398.5C 82.7532,393.09 77.7532,387.09 73.5,380.5C 75.5241,368.669 77.8574,357.003 80.5,345.5 Z"/></g>
<g><path style="opacity:1" fill="#e1e7d4" d="M 149.5,383.5 C 154.816,386.472 160.15,389.472 165.5,392.5C 170.596,394.883 175.596,397.549 180.5,400.5C 175.084,399.211 169.917,397.211 165,394.5C 160.927,396.438 158.927,395.104 159,390.5C 155.45,388.497 152.284,386.163 149.5,383.5 Z"/></g>
<g><path style="opacity:1" fill="#3797b7" d="M 165.5,392.5 C 166.873,392.343 168.207,392.51 169.5,393C 178.166,397.173 186.832,401.007 195.5,404.5C 190.517,403.173 185.517,401.84 180.5,400.5C 175.596,397.549 170.596,394.883 165.5,392.5 Z"/></g>
<g><path style="opacity:1" fill="#e1f3ea" d="M 326.5,396.5 C 323.039,399.402 319.039,401.568 314.5,403C 316.795,403.984 316.461,404.817 313.5,405.5C 310.669,403.871 308.335,404.371 306.5,407C 302.152,407.465 297.819,407.965 293.5,408.5C 304.443,404.669 315.443,400.669 326.5,396.5 Z"/></g>
<g><path style="opacity:1" fill="#ceeff1" d="M 291.5,408.5 C 290.4,409.558 289.066,410.392 287.5,411C 282.552,412.05 277.552,412.55 272.5,412.5C 278.666,410.928 284.999,409.595 291.5,408.5 Z"/></g>
<g><path style="opacity:1" fill="#d2eeeb" d="M 180.5,400.5 C 185.517,401.84 190.517,403.173 195.5,404.5C 199.083,406.801 203.083,408.301 207.5,409C 228.692,412.195 250.026,413.361 271.5,412.5C 269.031,413.317 266.365,413.817 263.5,414C 251.5,414.667 239.5,414.667 227.5,414C 218.77,412.93 210.103,411.43 201.5,409.5C 196.331,407.743 191.331,405.743 186.5,403.5C 184.25,402.87 182.25,401.87 180.5,400.5 Z"/></g>
</svg>
